<svg width="24" height="24" viewBox="0 0 24 24" fill="none" xmlns="http://www.w3.org/2000/svg">
    <path d="M10 2C14.42 2 18 3.79 18 6C18 8.21 14.42 10 10 10C5.58 10 2 8.21 2 6C2 3.79 5.58 2 10 2ZM18 11.03C16.11 11.24 14.57 12.62 14.13 14.43C12.92 14.79 11.5 15 10 15C5.58 15 2 13.21 2 11V8C2 10.21 5.58 12 10 12C14.42 12 18 10.21 18 8V11.03ZM13 16.71V19.71C12.07 19.9 11.06 20 10 20C5.58 20 2 18.21 2 16V13C2 15.21 5.58 17 10 17C11.06 17 12.07 16.9 13 16.71ZM18.5 13C19.163 13 19.7989 13.2634 20.2678 13.7322C20.7366 14.2011 21 14.837 21 15.5V16C21.2652 16 21.5196 16.1054 21.7071 16.2929C21.8946 16.4804 22 16.7348 22 17V21C22 21.2652 21.8946 21.5196 21.7071 21.7071C21.5196 21.8946 21.2652 22 21 22H16C15.7348 22 15.4804 21.8946 15.2929 21.7071C15.1054 21.5196 15 21.2652 15 21V17C15 16.7348 15.1054 16.4804 15.2929 16.2929C15.4804 16.1054 15.7348 16 16 16V15.5C16 14.837 16.2634 14.2011 16.7322 13.7322C17.2011 13.2634 17.837 13 18.5 13ZM18.5 14C18.1022 14 17.7206 14.158 17.4393 14.4393C17.158 14.7206 17 15.1022 17 15.5V16H20V15.5C20 15.1022 19.842 14.7206 19.5607 14.4393C19.2794 14.158 18.8978 14 18.5 14Z" fill="#5E0DFF"/>
</svg>
