<svg width="24" height="24" viewBox="0 0 24 24" fill="none" xmlns="http://www.w3.org/2000/svg">
    <path d="M6.85712 17.3082C7.64283 18.0765 7.35712 19.5431 6.21426 20.6605C4.89284 21.9874 1.67857 22.8255 1.53571 22.8604L1 23.0001L1.14286 22.4763C1.17857 22.3366 2.14285 19.124 3.39285 17.9368C4.07142 17.2733 4.92855 16.8892 5.67855 16.8892C6.14284 16.8543 6.53569 17.0289 6.85712 17.3082Z" fill="#5E0DFF"/>
    <path d="M22.9998 1.00089V1.59452C22.9998 6.76259 21.9641 10.6386 16.9284 15.1782C16.9998 17.6225 16.2498 19.578 14.6427 21.1494L14.1427 21.6383L11.0355 17.1686C9.96411 17.6225 8.46412 17.2384 7.39269 16.1908C6.28556 15.1083 5.92841 13.6417 6.3927 12.5941L1.82129 9.52122L2.357 9.03235C3.96414 7.46098 5.99984 6.72767 8.49983 6.83243C13.1784 1.94371 17.1427 0.965969 22.4283 1.00089H22.9998ZM17.9641 8.15937C17.9998 6.93719 17.0355 5.88961 15.7498 5.81977C14.4998 5.74993 13.4284 6.72767 13.357 7.98477C13.3212 9.20695 14.2855 10.2545 15.5712 10.3244C16.8569 10.3942 17.8927 9.41646 17.9641 8.15937Z" fill="#5E0DFF"/>
</svg>
