<svg width="24" height="24" viewBox="0 0 24 24" fill="none" xmlns="http://www.w3.org/2000/svg">
    <path d="M15 4C13.9391 4 12.9217 4.42143 12.1716 5.17157C11.4214 5.92172 11 6.93913 11 8C11 9.06087 11.4214 10.0783 12.1716 10.8284C12.9217 11.5786 13.9391 12 15 12C16.0609 12 17.0783 11.5786 17.8284 10.8284C18.5786 10.0783 19 9.06087 19 8C19 6.93913 18.5786 5.92172 17.8284 5.17157C17.0783 4.42143 16.0609 4 15 4ZM15 13C12.33 13 7 14.33 7 17V20H23V17C23 14.33 17.67 13 15 13ZM15 14.9C17.97 14.9 21.1 16.36 21.1 17V18.1H8.9V17C8.9 16.36 12 14.9 15 14.9Z" fill="#B3B3B3"/>
    <path d="M6 7V4H4V7H1V9H4V12H6V9H9V7H6Z" fill="#B3B3B3"/>
</svg>
